<mxfile host="65bd71144e">
    <diagram id="LVprCn4Ah_2OKZ0S0vy9" name="Page-1">
        <mxGraphModel dx="1041" dy="435" grid="1" gridSize="10" guides="1" tooltips="1" connect="1" arrows="1" fold="1" page="1" pageScale="1" pageWidth="850" pageHeight="1100" math="0" shadow="0">
            <root>
                <mxCell id="0"/>
                <mxCell id="1" parent="0"/>
                <mxCell id="44" value="&lt;font style=&quot;font-size: 13px;&quot;&gt;&lt;b style=&quot;font-size: 13px;&quot;&gt;Azure Cloud&lt;/b&gt;&lt;/font&gt;" style="aspect=fixed;perimeter=ellipsePerimeter;html=1;align=center;shadow=0;dashed=0;spacingTop=3;image;image=img/lib/active_directory/internet_cloud.svg;sketch=0;fontSize=13;fontColor=#E6E6E6;strokeColor=default;strokeWidth=0;rotation=90;labelBorderColor=#4D4D4D;textOpacity=80;labelBackgroundColor=#2A2A2A;" parent="1" vertex="1">
                    <mxGeometry x="259.09000000000003" y="293.08" width="709.39" height="446.92" as="geometry"/>
                </mxCell>
                <mxCell id="22" style="edgeStyle=none;html=1;fontSize=13;align=left;fillColor=#0050ef;strokeColor=default;shadow=1;strokeWidth=0;jumpStyle=arc;shape=flexArrow;labelBorderColor=#4D4D4D;textOpacity=80;labelBackgroundColor=#2A2A2A;fontColor=#E6E6E6;" parent="1" source="2" target="17" edge="1">
                    <mxGeometry relative="1" as="geometry"/>
                </mxCell>
                <mxCell id="29" style="edgeStyle=none;html=1;fontSize=13;align=left;fillColor=#0050ef;strokeColor=default;shadow=1;strokeWidth=0;jumpStyle=arc;shape=flexArrow;labelBorderColor=#4D4D4D;textOpacity=80;labelBackgroundColor=#2A2A2A;fontColor=#E6E6E6;" parent="1" source="6" target="35" edge="1">
                    <mxGeometry relative="1" as="geometry"/>
                </mxCell>
                <mxCell id="30" style="edgeStyle=none;html=1;fontSize=13;align=left;fillColor=#0050ef;strokeColor=default;shadow=1;strokeWidth=0;jumpStyle=arc;shape=flexArrow;labelBorderColor=#4D4D4D;textOpacity=80;labelBackgroundColor=#2A2A2A;fontColor=#E6E6E6;" parent="1" source="8" target="23" edge="1">
                    <mxGeometry relative="1" as="geometry"/>
                </mxCell>
                <mxCell id="21" style="edgeStyle=none;html=1;fontSize=13;align=left;fillColor=#0050ef;strokeColor=default;shadow=1;strokeWidth=0;jumpStyle=arc;shape=flexArrow;labelBorderColor=#4D4D4D;textOpacity=80;labelBackgroundColor=#2A2A2A;fontColor=#E6E6E6;" parent="1" source="11" target="17" edge="1">
                    <mxGeometry relative="1" as="geometry"/>
                </mxCell>
                <mxCell id="36" style="edgeStyle=none;html=1;jumpStyle=arc;fontSize=13;align=left;fillColor=#0050ef;strokeColor=default;shadow=1;strokeWidth=0;shape=flexArrow;labelBorderColor=#4D4D4D;textOpacity=80;labelBackgroundColor=#2A2A2A;fontColor=#E6E6E6;" parent="1" source="23" target="35" edge="1">
                    <mxGeometry relative="1" as="geometry"/>
                </mxCell>
                <mxCell id="43" style="edgeStyle=none;jumpStyle=arc;html=1;startArrow=classic;startFill=1;fontSize=13;align=left;fillColor=#0050ef;strokeColor=default;shadow=1;strokeWidth=0;shape=flexArrow;labelBorderColor=#4D4D4D;textOpacity=80;labelBackgroundColor=#2A2A2A;fontColor=#E6E6E6;" parent="1" source="23" target="41" edge="1">
                    <mxGeometry relative="1" as="geometry"/>
                </mxCell>
                <mxCell id="28" style="edgeStyle=none;html=1;fontSize=13;align=left;fillColor=#0050ef;strokeColor=default;shadow=1;strokeWidth=0;jumpStyle=arc;shape=flexArrow;labelBorderColor=#4D4D4D;textOpacity=80;labelBackgroundColor=#2A2A2A;fontColor=#E6E6E6;" parent="1" source="17" target="27" edge="1">
                    <mxGeometry relative="1" as="geometry"/>
                </mxCell>
                <mxCell id="39" style="edgeStyle=none;html=1;fontSize=13;align=left;fillColor=#0050ef;strokeColor=default;shadow=1;strokeWidth=0;jumpStyle=arc;shape=flexArrow;labelBorderColor=#4D4D4D;textOpacity=80;labelBackgroundColor=#2A2A2A;fontColor=#E6E6E6;" parent="1" source="40" target="41" edge="1">
                    <mxGeometry relative="1" as="geometry"/>
                </mxCell>
                <mxCell id="42" style="edgeStyle=none;jumpStyle=arc;html=1;startArrow=classic;startFill=1;endArrow=none;endFill=0;fontSize=13;align=left;fillColor=#0050ef;strokeColor=default;shadow=1;strokeWidth=0;shape=flexArrow;labelBorderColor=#4D4D4D;textOpacity=80;labelBackgroundColor=#2A2A2A;fontColor=#E6E6E6;" parent="1" source="41" target="27" edge="1">
                    <mxGeometry relative="1" as="geometry"/>
                </mxCell>
                <mxCell id="2" value="&lt;div style=&quot;font-size: 13px;&quot;&gt;&lt;span style=&quot;font-size: 13px;&quot;&gt;Code (Function)&lt;br style=&quot;font-size: 13px;&quot;&gt;=============&lt;/span&gt;&lt;/div&gt;&lt;div style=&quot;font-size: 13px;&quot;&gt;&lt;span style=&quot;font-size: 13px;&quot;&gt;- Time trigger&lt;br style=&quot;font-size: 13px;&quot;&gt;- Database IN Binding&lt;/span&gt;&lt;/div&gt;&lt;div style=&quot;font-size: 13px;&quot;&gt;&lt;span style=&quot;font-size: 13px;&quot;&gt;- train model&lt;br style=&quot;font-size: 13px;&quot;&gt;- predict recommendations&lt;/span&gt;&lt;/div&gt;&lt;div style=&quot;font-size: 13px;&quot;&gt;&lt;span style=&quot;font-size: 13px;&quot;&gt;- save in CosmosDB&lt;/span&gt;&lt;/div&gt;" style="dashed=0;outlineConnect=0;html=1;align=left;labelPosition=center;verticalLabelPosition=bottom;verticalAlign=top;shape=mxgraph.weblogos.github;aspect=fixed;fontSize=13;labelBorderColor=#4D4D4D;textOpacity=80;labelBackgroundColor=#2A2A2A;fontColor=#E6E6E6;" parent="1" vertex="1">
                    <mxGeometry x="40" y="149" width="96" height="96" as="geometry"/>
                </mxCell>
                <mxCell id="6" value="&lt;div style=&quot;font-size: 13px;&quot;&gt;&lt;span style=&quot;font-size: 13px;&quot;&gt;Code (Function)&lt;/span&gt;&lt;/div&gt;&lt;div style=&quot;font-size: 13px;&quot;&gt;&lt;span style=&quot;font-size: 13px;&quot;&gt;============&lt;br style=&quot;font-size: 13px;&quot;&gt;- HTTP trigger&lt;br style=&quot;font-size: 13px;&quot;&gt;- CosmosDB IN/OUT Binding&lt;br style=&quot;font-size: 13px;&quot;&gt;- remove clicked articles &lt;br style=&quot;font-size: 13px;&quot;&gt;&amp;nbsp; &amp;nbsp; from recommendations&lt;/span&gt;&lt;/div&gt;" style="dashed=0;outlineConnect=0;html=1;align=left;labelPosition=center;verticalLabelPosition=bottom;verticalAlign=top;shape=mxgraph.weblogos.github;aspect=fixed;fontSize=13;labelBorderColor=#4D4D4D;textOpacity=80;labelBackgroundColor=#2A2A2A;fontColor=#E6E6E6;" parent="1" vertex="1">
                    <mxGeometry x="40" y="383" width="96" height="96" as="geometry"/>
                </mxCell>
                <mxCell id="8" value="&lt;div style=&quot;font-size: 13px;&quot;&gt;&lt;span style=&quot;font-size: 13px;&quot;&gt;Code (Mobile APP)&lt;/span&gt;&lt;/div&gt;&lt;div style=&quot;font-size: 13px;&quot;&gt;&lt;span style=&quot;font-size: 13px;&quot;&gt;===============&lt;br style=&quot;font-size: 13px;&quot;&gt;- call Function&lt;br style=&quot;font-size: 13px;&quot;&gt;- display recommendations&lt;/span&gt;&lt;/div&gt;" style="dashed=0;outlineConnect=0;html=1;align=left;labelPosition=center;verticalLabelPosition=bottom;verticalAlign=top;shape=mxgraph.weblogos.github;aspect=fixed;fontSize=13;labelBorderColor=#4D4D4D;textOpacity=80;labelBackgroundColor=#2A2A2A;fontColor=#E6E6E6;" parent="1" vertex="1">
                    <mxGeometry x="40" y="616" width="96" height="96" as="geometry"/>
                </mxCell>
                <mxCell id="11" value="Production Database&lt;br style=&quot;font-size: 13px;&quot;&gt;================&lt;br style=&quot;font-size: 13px;&quot;&gt;- Articles&lt;br style=&quot;font-size: 13px;&quot;&gt;- Users&lt;br style=&quot;font-size: 13px;&quot;&gt;- Clicks" style="aspect=fixed;html=1;points=[];align=left;image;fontSize=13;image=img/lib/azure2/general/Production_Ready_Database.svg;labelBorderColor=#4D4D4D;textOpacity=80;labelBackgroundColor=#2A2A2A;fontColor=#E6E6E6;" parent="1" vertex="1">
                    <mxGeometry x="650" y="265.29" width="60" height="80" as="geometry"/>
                </mxCell>
                <mxCell id="23" value="&lt;font style=&quot;font-size: 13px;&quot;&gt;Execute App&lt;/font&gt;" style="fontColor=#E6E6E6;verticalAlign=top;verticalLabelPosition=bottom;labelPosition=center;align=left;html=1;outlineConnect=0;fillColor=#CCCCCC;strokeColor=#6881B3;gradientColor=none;gradientDirection=north;strokeWidth=2;shape=mxgraph.networks.mobile;fontSize=13;aspect=fixed;labelBorderColor=#4D4D4D;textOpacity=80;labelBackgroundColor=#2A2A2A;" parent="1" vertex="1">
                    <mxGeometry x="280" y="624" width="40" height="80" as="geometry"/>
                </mxCell>
                <mxCell id="27" value="CosmosDB&lt;br style=&quot;font-size: 13px;&quot;&gt;=========&lt;br style=&quot;font-size: 13px;&quot;&gt;- Recommendations" style="sketch=0;aspect=fixed;html=1;points=[];align=left;image;fontSize=13;image=img/lib/mscae/CosmosDB.svg;labelBorderColor=#4D4D4D;textOpacity=80;labelBackgroundColor=#2A2A2A;fontColor=#E6E6E6;" parent="1" vertex="1">
                    <mxGeometry x="660" y="519.42" width="80" height="80" as="geometry"/>
                </mxCell>
                <mxCell id="34" style="edgeStyle=none;html=1;startArrow=classic;startFill=1;fontSize=13;align=left;fillColor=#0050ef;shadow=1;strokeWidth=0;strokeColor=#001DBC;shape=flexArrow;labelBorderColor=#4D4D4D;textOpacity=80;labelBackgroundColor=#2A2A2A;fontColor=#E6E6E6;" parent="1" source="35" target="27" edge="1">
                    <mxGeometry relative="1" as="geometry">
                        <mxPoint x="521.2639567464062" y="340" as="targetPoint"/>
                    </mxGeometry>
                </mxCell>
                <mxCell id="35" value="Remove clicked articles&lt;br style=&quot;font-size: 13px;&quot;&gt;from recommendations" style="aspect=fixed;html=1;points=[];align=left;image;fontSize=13;image=img/lib/azure2/compute/Function_Apps.svg;labelBorderColor=#4D4D4D;textOpacity=80;labelBackgroundColor=#2A2A2A;fontColor=#E6E6E6;" parent="1" vertex="1">
                    <mxGeometry x="470" y="519.42" width="80" height="70.58" as="geometry"/>
                </mxCell>
                <mxCell id="40" value="&lt;div style=&quot;font-size: 13px;&quot;&gt;&lt;span style=&quot;font-size: 13px;&quot;&gt;Code (Function)&lt;/span&gt;&lt;/div&gt;&lt;div style=&quot;font-size: 13px;&quot;&gt;&lt;span style=&quot;font-size: 13px;&quot;&gt;============&lt;br style=&quot;font-size: 13px;&quot;&gt;- HTTP trigger&lt;br style=&quot;font-size: 13px;&quot;&gt;- CosmosDB IN Binding&lt;br style=&quot;font-size: 13px;&quot;&gt;- return recommendations&lt;/span&gt;&lt;/div&gt;" style="dashed=0;outlineConnect=0;html=1;align=left;labelPosition=center;verticalLabelPosition=bottom;verticalAlign=top;shape=mxgraph.weblogos.github;aspect=fixed;fontSize=13;labelBorderColor=#4D4D4D;textOpacity=80;labelBackgroundColor=#2A2A2A;fontColor=#E6E6E6;" parent="1" vertex="1">
                    <mxGeometry x="40" y="850" width="96" height="96" as="geometry"/>
                </mxCell>
                <mxCell id="41" value="Return recommendations" style="aspect=fixed;html=1;points=[];align=left;image;fontSize=13;image=img/lib/azure2/compute/Function_Apps.svg;labelBorderColor=#4D4D4D;textOpacity=80;labelBackgroundColor=#2A2A2A;fontColor=#E6E6E6;" parent="1" vertex="1">
                    <mxGeometry x="560" y="750" width="80" height="70.58" as="geometry"/>
                </mxCell>
                <mxCell id="45" value="" style="group;labelBorderColor=#4D4D4D;html=1;textOpacity=80;labelBackgroundColor=#2A2A2A;fontColor=#E6E6E6;fontSize=13;" parent="1" vertex="1" connectable="0">
                    <mxGeometry x="480" y="270" width="80" height="70.584" as="geometry"/>
                </mxCell>
                <mxCell id="17" value="Re-train model every hour&lt;br style=&quot;font-size: 13px;&quot;&gt;Store recommendations" style="aspect=fixed;html=1;points=[];align=left;image;fontSize=13;image=img/lib/azure2/compute/Function_Apps.svg;labelBorderColor=#4D4D4D;textOpacity=80;labelBackgroundColor=#2A2A2A;fontColor=#E6E6E6;" parent="45" vertex="1">
                    <mxGeometry width="80" height="70.584" as="geometry"/>
                </mxCell>
                <mxCell id="18" value="" style="aspect=fixed;html=1;points=[];align=left;image;fontSize=13;image=img/lib/azure2/general/Scheduler.svg;labelBorderColor=#4D4D4D;textOpacity=80;labelBackgroundColor=#2A2A2A;fontColor=#E6E6E6;" parent="45" vertex="1">
                    <mxGeometry width="30" height="30" as="geometry"/>
                </mxCell>
            </root>
        </mxGraphModel>
    </diagram>
</mxfile>
